<svg width="19" height="19" viewBox="0 0 19 19" fill="none" xmlns="http://www.w3.org/2000/svg">
<path d="M7.57132 11.1888L7.56307 11.171C7.55545 11.1541 7.54463 11.1292 7.53167 11.0969C7.50575 11.0322 7.47128 10.9376 7.43684 10.8176C7.36797 10.5774 7.29913 10.2351 7.29913 9.82578C7.29913 8.54388 8.0434 7.57623 8.98316 7.57623C9.38169 7.57623 9.679 7.726 9.87621 7.96681C10.0729 8.20697 10.1682 8.53543 10.1682 8.89063C10.1682 9.28831 10.0423 9.7822 9.88534 10.3105C9.84142 10.4583 9.79504 10.6088 9.7482 10.7608C9.62713 11.1538 9.50293 11.5569 9.4098 11.9494L9.40979 11.9494C9.1958 12.8453 9.8583 13.5752 10.7426 13.5752C11.5481 13.5752 12.262 13.1508 12.7754 12.4163C13.2889 11.6815 13.6012 10.6369 13.6012 9.40071C13.6012 8.30898 13.2089 7.38309 12.5381 6.73012C11.8672 6.0771 10.9162 5.69562 9.79633 5.69562C7.2013 5.69562 5.68096 7.63895 5.68096 9.64836C5.68096 10.4306 5.98246 11.2677 6.35185 11.725C6.35188 11.725 6.35191 11.725 6.35195 11.7251L6.33296 11.7404C6.40688 11.8291 6.41797 11.9105 6.39579 12.0029C6.36477 12.1302 6.31715 12.3232 6.27111 12.5099C6.21293 12.7457 6.15726 12.9713 6.14075 13.0415L7.57132 11.1888ZM7.57132 11.1888L7.5707 11.1914L7.5631 11.2236L7.53407 11.3466L7.42921 11.7911L7.09973 13.1884C6.85255 14.2371 6.58457 15.3756 6.50139 15.7342C6.31892 16.5152 6.38738 17.609 6.46337 18.334C3.08422 16.9936 0.69104 13.6933 0.69104 9.83317C0.69104 4.78281 4.78293 0.690918 9.83329 0.690918C14.8837 0.690918 18.9755 4.78281 18.9755 9.83317C18.9755 14.8835 14.8837 18.9754 9.83329 18.9754C8.90057 18.9754 8.00389 18.835 7.15746 18.5755C7.53058 17.9634 8.07735 16.9801 8.28232 16.1932L8.28233 16.1931C8.33777 15.9788 8.48006 15.4336 8.60851 14.942L8.77819 14.2928L8.83162 14.0885L8.8362 14.071M7.57132 11.1888L8.8362 14.071M8.8362 14.071C8.99598 14.3405 9.27946 14.5863 9.63079 14.7681C10.0055 14.962 10.4594 15.0841 10.9274 15.0841C13.71 15.0841 15.7088 12.5253 15.7088 9.35636C15.7088 6.31403 13.2234 4.03893 10.0329 4.03893C8.0497 4.03893 6.52867 4.70446 5.5034 5.73484C4.47831 6.76504 3.95034 8.15842 3.95034 9.6114C3.95034 10.2881 4.13057 11.0467 4.45416 11.7032C4.77761 12.3593 5.24575 12.9163 5.82365 13.1856C5.82364 13.1856 5.82363 13.1856 5.82361 13.1856L5.83396 13.1635L8.8362 14.071Z" fill="#697687" stroke="#697687" stroke-width="0.0488281"/>
</svg>
